<?xml version="1.0" encoding="utf-8"?>
<!-- Svg Vector Icons : http://www.onlinewebfonts.com/icon -->
<!DOCTYPE svg PUBLIC "-//W3C//DTD SVG 1.1//EN" "http://www.w3.org/Graphics/SVG/1.1/DTD/svg11.dtd">
<svg version="1.1" xmlns="http://www.w3.org/2000/svg" xmlns:xlink="http://www.w3.org/1999/xlink" x="0px" y="0px" viewBox="0 0 1000 1000" enable-background="new 0 0 1000 1000" xml:space="preserve">
<metadata> Svg Vector Icons : http://www.onlinewebfonts.com/icon </metadata>
<g><g transform="translate(0.000000,511.000000) scale(0.100000,-0.100000)"><path d="M6757.7,4597.5c-627.3-603.6-592.9-577.9-872.2-670.2c-281.4-94.5-449-197.6-663.8-410.3c-212.7-212.7-352.3-494.1-569.3-1149.3c-348-1050.5-552.1-1647.7-614.4-1795.9c-101-232-242.7-453.3-575.7-900.1c-741.1-990.3-1284.6-1901.2-1488.7-2500.5c-70.9-210.5-77.3-247.1-77.3-485.5c-2.1-206.2,8.6-294.3,47.3-440.4c98.8-363.1,326.5-910.8,386.7-934.5c19.3-6.4,223.4-32.2,457.6-58l423.2-43l326.5,68.8C4603.1-4497.8,5000.5-4283,5367.9-3731c156.8,236.3,584.3,921.6,726.1,1168.6c191.2,330.8,975.3,1813.1,1089.1,2062.2C7524.6,241,7799.6,1255,7853.3,1976.8c19.3,242.7,0,760.5-40.8,1089.1c-38.7,302.9-34.4,324.4,143.9,764.8c128.9,326.5,159,421,143.9,461.9c-25.8,66.6-814.2,717.5-870,717.5C7202.4,5010,7028.4,4857.5,6757.7,4597.5z M7586.9,4462.2c154.7-126.7,277.1-242.7,275-255.6c-4.3-12.9-68.7-178.3-143.9-367.3l-137.5-343.7l-176.2-30.1c-152.5-27.9-178.3-27.9-193.3,0c-10.7,17.2-64.4,98.8-122.5,180.4c-75.2,109.6-118.2,152.5-156.8,156.8c-34.4,4.3-133.2-40.8-272.8-122.4l-219.1-126.7l-34.4,111.7c-19.3,60.2-43,135.3-53.7,167.6c-17.2,53.7,8.6,81.6,433.9,489.8c403.8,388.8,453.3,429.6,485.5,401.7C7292.6,4709.3,7434.4,4591.1,7586.9,4462.2z M6197,3585.8l51.6-169.7l-148.2-141.8c-298.6-292.2-438.2-517.7-616.5-994.6c-326.5-882.9-739-1714.2-1295.4-2627.2c-530.6-867.9-773.3-1319-1129.9-2109.5c-403.9-889.4-442.5-1031.1-459.7-1645.5c-8.6-275-19.3-403.8-36.5-403.8c-92.4,2.1-118.1,30.1-201.9,232c-120.3,294.3-219.1,610.1-247,801.3c-45.1,320.1,49.4,620.8,414.6,1314.7c251.3,476.9,629.4,1052.6,1059,1624c571.4,758.3,610.1,837.8,1067.7,2214.8c341.6,1022.5,483.3,1383.4,625.1,1578.9c116,163.3,386.7,354.4,610.1,433.9c105.2,38.7,208.4,66.6,225.6,64.4C6134.8,3755.5,6164.8,3686.7,6197,3585.8z M6974.7,3422.5l85.9-128.9L6719,2417.1C6302.3,1345.2,6164.8,965,6051,574C5791-308.9,5660-605.4,5077.8-1621.4c-646.6-1127.8-936.6-1523-1942-2650.9c-176.1-199.8-238.4-255.6-281.4-255.6h-53.7l12.9,382.4c21.5,605.8,62.3,751.9,436.1,1576.8c324.4,719.6,573.6,1192.2,1013.9,1920.4c747.6,1246,1035.4,1817.4,1422.1,2833.5c156.8,410.3,206.2,507,360.9,700.3c176.2,223.4,367.3,391,614.4,537c118.2,68.7,217,126.7,221.3,126.7C6884.5,3549.2,6925.3,3491.2,6974.7,3422.5z M7595.5,3029.4c15-133.2,32.2-425.3,38.7-650.9c8.6-345.9,4.3-455.4-34.4-708.9C7522.5,1151.9,7335.6,460.2,7125.1-79c-292.1-747.6-1583.2-3069.7-2030-3654c-118.2-154.7-298.6-322.2-418.9-391c-223.4-131-670.2-275-1185.8-384.5c-165.4-34.4-305-60.2-307.2-58c-2.1,4.3,139.6,171.9,315.8,371.6c436.1,494.1,809.9,953.8,1011.8,1241.7C5002.7-2253,5784.6-858.8,6001.6-293.9c47.2,122.5,154.7,451.1,238.4,728.2c161.1,537,259.9,812,728.2,2019.3l298.6,762.6l137.5,23.6c77.3,15,146.1,25.8,152.5,27.9C7563.3,3270,7580.5,3160.4,7595.5,3029.4z"/></g></g>
</svg>